#!OML:ASF H:\Male1\Project 1\Capture day 1\Session 1\Male1.ASF
:FULLY-SPECIFIED
:DEGREES
383
root 17.1199 15.2699 3.25014 177.058 5.19581 -184.656
lowerback 15.7057 5.05319 -1.70463
upperback 3.29252 6.84253 -3.51657
thorax -4.99255 3.63778 -4.12356
lowerneck -5.20275 8.92501 14.9953
upperneck -1.31407 11.2003 -13.5335
head 2.09689 5.34081 -6.00508
rclavicle -2.83268e-015 2.94201e-014
rhumerus -60.5766 16.4947 -57.1595
rradius 63.6886
rwrist -35.5895
rhand -18.7272 7.45866
rfingers 7.12502
rthumb 7.56844 -22.3859
lclavicle -2.83268e-015 2.94201e-014
lhumerus -70.0858 3.08741 75.3008
lradius 52.9529
lwrist 33.7797
lhand -34.8386 33.1398
lfingers 7.12502
lthumb -7.98903 62.9689
rfemur -13.9112 0.995159 27.0069
rtibia 53.218
rfoot -14.7315 -20.413
rtoes -8.50643
lfemur -8.59832 -15.441 -10.1406
ltibia 48.4221
lfoot -11.9199 23.5847
ltoes 4.95526
384
root 16.6489 14.9063 3.35245 177.379 5.55227 -183.784
lowerback 16.0517 5.05302 -0.782501
upperback 3.2909 6.95644 -2.88022
thorax -5.15199 3.65562 -4.02026
lowerneck -3.99456 8.70584 15.4957
upperneck -2.18867 10.9906 -14.1148
head 1.6827 5.26722 -6.35023
rclavicle -6.5102e-015 3.18055e-015
rhumerus -56.7587 14.205 -59.8024
rradius 61.4426
rwrist -36.341
rhand -21.3901 7.06231
rfingers 7.12502
rthumb 4.99772 -22.8588
lclavicle -6.5102e-015 3.18055e-015
lhumerus -65.625 3.19211 77.912
lradius 49.3635
lwrist 42.3748
lhand -33.1055 39.8165
lfingers 7.12502
lthumb -6.31606 69.7023
rfemur -15.1512 1.22315 26.0844
rtibia 55.5703
rfoot -20.4497 -19.2694
rtoes -16.4252
lfemur -9.23845 -14.0406 -7.45322
ltibia 49.6264
lfoot -11.3885 22.9616
ltoes 1.76062
385
root 16.1947 14.6369 3.45205 177.756 5.57708 -181.36
lowerback 16.7557 4.58739 1.62715
upperback 3.33223 6.74917 -1.63613
thorax -5.38444 3.49059 -4.07065
lowerneck -3.05186 8.83133 15.8769
upperneck -2.84561 11.2373 -14.9112
head 1.45178 5.41125 -6.69366
rclavicle 6.04088e-014 -1.95492e-014
rhumerus -50.8176 13.5006 -63.5529
rradius 58.2902
rwrist -38.4893
rhand -23.4438 6.92036
rfingers 7.12502
rthumb 3.0145 -23.0381
lclavicle 6.04088e-014 -1.95492e-014
lhumerus -60.4684 3.34661 80.2951
lradius 45.1321
lwrist 52.3132
lhand -31.3135 44.6552
lfingers 7.12502
lthumb -4.58591 74.5856
rfemur -16.5295 0.913917 26.4862
rtibia 57.7021
rfoot -28.1993 -16.9114
rtoes -10.8555
lfemur -10.0401 -12.6137 -3.21149
ltibia 50.854
lfoot -9.81973 20.6702
ltoes -4.1917
386
root 15.7118 14.2895 3.59032 178.418 5.27261 -179.102
lowerback 17.1651 3.88236 3.17006
upperback 3.49118 6.19527 -0.047831
thorax -5.49942 3.19974 -3.17233
lowerneck -2.25753 9.2614 16.2343
upperneck -3.80254 11.8358 -16.1566
head 1.25155 5.71709 -7.14946
rclavicle 3.926e-014 -2.38542e-015
rhumerus -42.9538 14.5651 -67.6978
rradius 54.959
rwrist -43.4951
rhand -26.4212 6.87493
rfingers 7.12502
rthumb 0.138933 -23.1048
lclavicle 3.926e-014 -2.38542e-015
lhumerus -55.74 3.2075 83.272
lradius 43.6933
lwrist 66.1247
lhand -36.8482 49.5035
lfingers 7.12502
lthumb -9.92822 79.2494
rfemur -18.1801 -1.34147 27.1572
rtibia 60.1814
rfoot -31.2063 -19.8293
rtoes -24.7808
lfemur -12.2035 -11.0777 0.514936
ltibia 53.1105
lfoot -8.34001 16.2239
ltoes -14.0581
387
root 15.2311 13.9892 3.7476 179.189 5.06366 -175.817
lowerback 17.9193 3.02477 5.76467
upperback 3.73814 5.82609 1.88073
thorax -5.62735 3.0396 -2.55701
lowerneck -1.8178 9.64606 16.0359
upperneck -5.06425 12.2585 -17.2553
head 0.961169 5.92092 -7.48097
rclavicle -3.34952e-014 4.85035e-014
rhumerus -33.592 13.9594 -71.0163
rradius 50.8554
rwrist -43.8384
rhand -25.7049 6.51909
rfingers 7.12502
rthumb 0.830804 -23.459
lclavicle -3.34952e-014 4.85035e-014
lhumerus -50.7671 4.00128 84.1105
lradius 45.0681
lwrist 77.9032
lhand -41.4077 50.972
lfingers 7.12502
lthumb -14.3245 80.4578
rfemur -21.817 -1.67891 29.2134
rtibia 63.9891
rfoot -30.4441 -23.5512
rtoes -32.599
lfemur -14.4371 -8.89313 5.00988
ltibia 55.7212
lfoot -15.2996 11.1291
ltoes -36.2662
388
root 14.7664 13.7704 3.94275 179.955 4.81636 -175.518
lowerback 19.1347 2.51286 5.23802
upperback 3.97359 5.36862 3.18916
thorax -6.24531 2.87067 -0.864625
lowerneck -1.56675 10.0293 15.4995
upperneck -6.51419 12.5637 -18.744
head 0.649139 6.05815 -7.89002
rclavicle 6.16232e-015 4.85035e-014
rhumerus -24.6781 13.9426 -74.5778
rradius 47.3188
rwrist -41.7264
rhand -25.215 6.66822
rfingers 7.12502
rthumb 1.30396 -23.3075
lclavicle 6.16232e-015 4.85035e-014
lhumerus -46.1514 4.02678 85.4367
lradius 47.9691
lwrist 76.7629
lhand -41.9158 48.5961
lfingers 7.12502
lthumb -14.814 78.0466
rfemur -26.9103 -2.02519 27.7827
rtibia 68.6303
rfoot -30.6365 -22.1078
rtoes -25.1535
lfemur -17.3992 -7.38703 5.10323
ltibia 59.3307
lfoot -19.1889 9.05142
ltoes -39.8266
389
root 14.2767 13.5594 4.13498 180.338 4.95321 -175.914
lowerback 20.6472 2.20759 5.04299
upperback 4.47041 5.23545 3.83323
thorax -6.60231 2.87555 -0.1203
lowerneck -1.67227 10.3312 15.3382
upperneck -8.00741 12.6352 -20.4443
head 0.396924 6.05557 -8.43265
rclavicle -2.82274e-014 -1.82882e-014
rhumerus -16.9679 14.6747 -78.8792
rradius 45.5076
rwrist -39.4234
rhand -25.5096 7.62363
rfingers 7.12502
rthumb 1.01936 -22.3537
lclavicle -2.82274e-014 -1.82882e-014
lhumerus -41.465 1.49912 86.1776
lradius 52.9521
lwrist 68.298
lhand -37.9072 45.0972
lfingers 7.12502
lthumb -10.9497 74.7917
rfemur -31.5122 -2.85828 25.5988
rtibia 72.7976
rfoot -28.2613 -23.536
rtoes -26.7965
lfemur -20.5541 -5.63068 3.42427
ltibia 63.1068
lfoot -22.7341 11.0617
ltoes -44.3714
390
root 13.8286 13.4537 4.29344 180.685 4.83397 -176.412
lowerback 21.8614 2.04188 5.0954
upperback 4.94323 5.26709 4.10994
thorax -6.75172 2.95005 0.0786898
lowerneck -1.82653 10.4891 15.8862
upperneck -9.29704 12.5048 -22.1945
head 0.235581 5.94274 -9.12621
rclavicle 2.42517e-014 1.59028e-015
rhumerus -10.3443 15.6635 -83.5393
rradius 45.3176
rwrist -39.3238
rhand -24.2976 7.58701
rfingers 7.12502
rthumb 2.18994 -22.3815
lclavicle 2.42517e-014 1.59028e-015
lhumerus -37.5641 -1.42084 85.0485
lradius 59.9627
lwrist 61.9461
lhand -35.7158 41.3356
lfingers 7.12502
lthumb -8.8356 71.1307
rfemur -34.3335 -3.18276 23.2691
rtibia 75.095
rfoot -28.5778 -23.7109
rtoes -24.6373
lfemur -23.8223 -2.45449 1.18324
ltibia 67.0178
lfoot -24.9957 10.1765
ltoes -39.7792
391
root 13.3731 13.3835 4.42488 181.004 3.72976 -176.044
lowerback 22.7427 1.63434 6.30024
upperback 5.30305 5.29937 4.62183
thorax -6.77178 3.02886 -0.0953845
lowerneck -1.74468 10.3605 15.7631
upperneck -10.6539 12.0226 -22.7501
head -0.203779 5.68655 -9.38168
rclavicle 4.8901e-014 -3.02153e-014
rhumerus -4.85588 18.7066 -87.1346
rradius 46.0914
rwrist -40.0867
rhand -24.545 7.0782
rfingers 7.12502
rthumb 1.95099 -22.8926
lclavicle 4.8901e-014 -3.02153e-014
lhumerus -32.6972 -3.42225 82.6639
lradius 67.2892
lwrist 59.126
lhand -34.4094 40.2965
lfingers 7.12502
lthumb -7.57469 70.1408
rfemur -35.2844 -3.71449 21.5097
rtibia 75.4392
rfoot -30.0164 -23.4731
rtoes -23.0559
lfemur -27.3631 -0.172662 -0.462275
ltibia 70.637
lfoot -26.2175 9.83163
ltoes -36.7853
392
root 12.9074 13.3246 4.5252 181.11 2.64437 -175.443
lowerback 23.4957 1.33603 7.12782
upperback 5.55623 5.46447 5.51055
thorax -6.90839 3.18611 0.319698
lowerneck -2.02035 10.2456 15.8784
upperneck -10.8995 11.7143 -23.3445
head -0.221276 5.49921 -9.61785
rclavicle 4.92986e-014 1.1609e-013
rhumerus -1.18947 24.5421 -88.6762
rradius 48.2201
rwrist -41.0673
rhand -25.9207 7.66542
rfingers 7.12502
rthumb 0.622347 -22.3134
lclavicle 4.92986e-014 1.1609e-013
lhumerus -28.9174 -3.89518 80.0145
lradius 75.8255
lwrist 59.48
lhand -34.5066 38.2646
lfingers 7.12502
lthumb -7.66853 68.1055
rfemur -34.8885 -2.77753 19.7775
rtibia 74.437
rfoot -30.5391 -24.4683
rtoes -25.3517
lfemur -30.4179 1.39706 -2.04353
ltibia 73.7957
lfoot -27.416 8.02026
ltoes -28.5324
393
root 12.4444 13.3005 4.60697 180.782 1.36016 -175.121
lowerback 24.4639 0.908627 7.7811
upperback 5.67747 5.39275 5.99479
thorax -7.27874 3.20041 0.450774
lowerneck -1.9617 10.2319 16.264
upperneck -11.1244 11.6619 -23.5469
head -0.26027 5.4644 -9.76628
rclavicle 5.24792e-014 3.49861e-014
rhumerus 1.97504 27.8514 -90.7648
rradius 50.5127
rwrist -38.7905
rhand -23.5681 6.03876
rfingers 7.12502
rthumb 2.89447 -23.9213
lclavicle 5.24792e-014 3.49861e-014
lhumerus -26.6731 -2.61334 77.1181
lradius 85.0012
lwrist 60.2551
lhand -32.3296 35.7001
lfingers 7.12502
lthumb -5.56701 65.6069
rfemur -33.4137 -2.22278 17.7736
rtibia 72.4751
rfoot -30.9272 -25.4675
rtoes -26.6677
lfemur -32.3882 1.60934 -3.81918
ltibia 75.8721
lfoot -27.2337 8.11832
ltoes -31.6207
394
root 11.9707 13.3163 4.66408 180.647 0.265583 -175.236
lowerback 24.8054 0.70144 7.7943
upperback 5.87448 5.36292 6.55057
thorax -7.30118 3.25433 1.0446
lowerneck -2.65689 10.2007 16.8875
upperneck -10.7912 11.4899 -24.6556
head 0.0616167 5.30631 -10.213
rclavicle -1.82882e-014 -4.13472e-014
rhumerus 4.09536 32.0719 -90.8774
rradius 54.1822
rwrist -39.1065
rhand -22.9826 5.59225
rfingers 7.12502
rthumb 3.45986 -24.3594
lclavicle -1.82882e-014 -4.13472e-014
lhumerus -25.4794 -0.750125 74.4351
lradius 93.4967
lwrist 59.697
lhand -31.4943 32.1126
lfingers 7.12502
lthumb -4.76041 62.0391
rfemur -31.8757 -1.9807 15.3368
rtibia 69.8089
rfoot -27.5861 -27.7578
rtoes -34.0496
lfemur -33.5222 1.24954 -6.08536
ltibia 76.6419
lfoot -27.5708 6.65378
ltoes -29.3562
395
root 11.4729 13.4416 4.66836 181.237 -0.36196 -175.509
lowerback 24.2569 2.96344 9.10805
upperback 5.4429 4.98554 7.04498
thorax -7.22267 1.52212 1.20506
lowerneck -2.25509 9.90149 16.5161
upperneck -11.4109 10.9291 -25.1238
head -0.274337 5.05475 -10.4057
rclavicle 2.70347e-014 1.43125e-014
rhumerus 4.90296 34.8784 -90.2174
rradius 58.5353
rwrist -37.4846
rhand -21.1798 4.31347
rfingers 7.12502
rthumb 5.20079 -25.6027
lclavicle 2.70347e-014 1.43125e-014
lhumerus -25.5361 -0.0123967 71.3821
lradius 101.569
lwrist 60.656
lhand -32.9572 29.788
lfingers 7.12502
lthumb -6.17293 59.678
rfemur -30.4566 -1.52105 12.7534
rtibia 66.0708
rfoot -27.6376 -26.798
rtoes -28.2439
lfemur -33.818 1.1402 -8.8593
ltibia 75.7607
lfoot -27.9739 5.93161
ltoes -27.2207
396
root 10.9462 13.6536 4.63543 180.888 -1.00101 -175.376
lowerback 23.9936 2.85787 10.4303
upperback 5.61671 5.03004 7.30789
thorax -6.77069 1.50197 0.768194
lowerneck -3.99349 9.86017 16.2544
upperneck -9.23576 11.0881 -24.6739
head 0.599163 5.02122 -10.0375
rclavicle -2.46493e-014 4.77083e-015
rhumerus 5.59418 37.1343 -88.6083
rradius 62.7938
rwrist -36.1586
rhand -21.6835 5.03999
rfingers 7.12502
rthumb 4.71442 -24.8876
lclavicle -2.46493e-014 4.77083e-015
lhumerus -27.3614 0.0911602 69.0857
lradius 109.229
lwrist 56.581
lhand -33.7593 29.2786
lfingers 7.12502
lthumb -6.94724 59.1446
rfemur -27.1038 -1.07557 10.6583
rtibia 60.9644
rfoot -23.3153 -27.7022
rtoes -30.4054
lfemur -32.0803 1.61225 -11.5872
ltibia 73.5033
lfoot -27.791 6.65726
ltoes -27.7761
397
root 10.402 13.931 4.5817 180.802 -1.99503 -174.851
lowerback 23.3679 2.56561 11.8039
upperback 5.32872 4.89205 7.93726
thorax -6.68872 1.38425 0.773754
lowerneck -3.6975 9.63111 16.3045
upperneck -8.83056 10.8498 -25.2746
head 0.668315 4.91638 -10.2806
rclavicle 1.03368e-014 4.77083e-014
rhumerus 5.11346 39.3965 -86.0812
rradius 67.0677
rwrist -34.4346
rhand -21.7246 5.53833
rfingers 7.12502
rthumb 4.6747 -24.3901
lclavicle 1.03368e-014 4.77083e-014
lhumerus -31.1927 -0.285537 66.6985
lradius 115.256
lwrist 50.0551
lhand -33.1131 28.3154
lfingers 7.12502
lthumb -6.32337 58.201
rfemur -23.3287 -1.16624 9.08798
rtibia 54.8033
rfoot -20.6239 -27.3813
rtoes -24.2559
lfemur -30.3994 2.86169 -13.9647
ltibia 70.3446
lfoot -26.5575 5.79276
ltoes -23.4521
